<?xml version="1.0" encoding="UTF-8" standalone="no"?>
<!DOCTYPE svg PUBLIC "-//W3C//DTD SVG 1.0//EN" "http://www.w3.org/TR/2001/PR-SVG-20010719/DTD/svg10.dtd">
<svg width="40cm" height="20cm" viewBox="-1 -1 782 382" xmlns="http://www.w3.org/2000/svg" xmlns:xlink="http://www.w3.org/1999/xlink">
  <g>
    <ellipse style="fill: #ffffff" cx="390" cy="50" rx="50" ry="50"/>
    <ellipse style="fill: none; fill-opacity:0; stroke-width: 2; stroke: #000000" cx="390" cy="50" rx="50" ry="50"/>
    <text font-size="12.7998" style="fill: #000000;text-anchor:middle;font-family:sans-serif;font-style:normal;font-weight:normal" x="390" y="53.9">
      <tspan x="390" y="53.9">Salt Syndic</tspan>
    </text>
  </g>
  <g>
    <ellipse style="fill: #ffffff" cx="170" cy="170" rx="50" ry="50"/>
    <ellipse style="fill: none; fill-opacity:0; stroke-width: 2; stroke: #000000" cx="170" cy="170" rx="50" ry="50"/>
    <text font-size="12.7998" style="fill: #000000;text-anchor:middle;font-family:sans-serif;font-style:normal;font-weight:normal" x="170" y="173.9">
      <tspan x="170" y="173.9">Salt Master</tspan>
    </text>
  </g>
  <g>
    <ellipse style="fill: #ffffff" cx="610" cy="170" rx="50" ry="50"/>
    <ellipse style="fill: none; fill-opacity:0; stroke-width: 2; stroke: #000000" cx="610" cy="170" rx="50" ry="50"/>
    <text font-size="12.7998" style="fill: #000000;text-anchor:middle;font-family:sans-serif;font-style:normal;font-weight:normal" x="610" y="173.9">
      <tspan x="610" y="173.9">Salt Master</tspan>
    </text>
  </g>
  <g>
    <ellipse style="fill: #ffffff" cx="170" cy="330" rx="50" ry="50"/>
    <ellipse style="fill: none; fill-opacity:0; stroke-width: 2; stroke: #000000" cx="170" cy="330" rx="50" ry="50"/>
    <text font-size="12.7998" style="fill: #000000;text-anchor:middle;font-family:sans-serif;font-style:normal;font-weight:normal" x="170" y="333.9">
      <tspan x="170" y="333.9">Salt Minion</tspan>
    </text>
  </g>
  <g>
    <ellipse style="fill: #ffffff" cx="290" cy="330" rx="50" ry="50"/>
    <ellipse style="fill: none; fill-opacity:0; stroke-width: 2; stroke: #000000" cx="290" cy="330" rx="50" ry="50"/>
    <text font-size="12.7998" style="fill: #000000;text-anchor:middle;font-family:sans-serif;font-style:normal;font-weight:normal" x="290" y="333.9">
      <tspan x="290" y="333.9">Salt Minion</tspan>
    </text>
  </g>
  <g>
    <ellipse style="fill: #ffffff" cx="50" cy="330" rx="50" ry="50"/>
    <ellipse style="fill: none; fill-opacity:0; stroke-width: 2; stroke: #000000" cx="50" cy="330" rx="50" ry="50"/>
    <text font-size="12.7998" style="fill: #000000;text-anchor:middle;font-family:sans-serif;font-style:normal;font-weight:normal" x="50" y="333.9">
      <tspan x="50" y="333.9">Salt Minion</tspan>
    </text>
  </g>
  <g>
    <ellipse style="fill: #ffffff" cx="490" cy="330" rx="50" ry="50"/>
    <ellipse style="fill: none; fill-opacity:0; stroke-width: 2; stroke: #000000" cx="490" cy="330" rx="50" ry="50"/>
    <text font-size="12.7998" style="fill: #000000;text-anchor:middle;font-family:sans-serif;font-style:normal;font-weight:normal" x="490" y="333.9">
      <tspan x="490" y="333.9">Salt Minion</tspan>
    </text>
  </g>
  <g>
    <ellipse style="fill: #ffffff" cx="610" cy="330" rx="50" ry="50"/>
    <ellipse style="fill: none; fill-opacity:0; stroke-width: 2; stroke: #000000" cx="610" cy="330" rx="50" ry="50"/>
    <text font-size="12.7998" style="fill: #000000;text-anchor:middle;font-family:sans-serif;font-style:normal;font-weight:normal" x="610" y="333.9">
      <tspan x="610" y="333.9">Salt Minion</tspan>
    </text>
  </g>
  <g>
    <ellipse style="fill: #ffffff" cx="730" cy="330" rx="50" ry="50"/>
    <ellipse style="fill: none; fill-opacity:0; stroke-width: 2; stroke: #000000" cx="730" cy="330" rx="50" ry="50"/>
    <text font-size="12.7998" style="fill: #000000;text-anchor:middle;font-family:sans-serif;font-style:normal;font-weight:normal" x="730" y="333.9">
      <tspan x="730" y="333.9">Salt Minion</tspan>
    </text>
  </g>
  <g>
    <line style="fill: none; fill-opacity:0; stroke-width: 2; stroke: #000000" x1="336.678" y1="79.0847" x2="223.322" y2="140.915"/>
    <polygon style="fill: #000000" points="343.262,75.4934 336.877,84.6714 336.678,79.0847 332.089,75.8924 "/>
    <polygon style="fill: none; fill-opacity:0; stroke-width: 2; stroke: #000000" points="343.262,75.4934 336.877,84.6714 336.678,79.0847 332.089,75.8924 "/>
    <polygon style="fill: #000000" points="216.738,144.507 223.123,135.329 223.322,140.915 227.911,144.108 "/>
    <polygon style="fill: none; fill-opacity:0; stroke-width: 2; stroke: #000000" points="216.738,144.507 223.123,135.329 223.322,140.915 227.911,144.108 "/>
  </g>
  <g>
    <line style="fill: none; fill-opacity:0; stroke-width: 2; stroke: #000000" x1="443.322" y1="79.0847" x2="556.678" y2="140.915"/>
    <polygon style="fill: #000000" points="436.738,75.4934 447.911,75.8924 443.322,79.0847 443.123,84.6714 "/>
    <polygon style="fill: none; fill-opacity:0; stroke-width: 2; stroke: #000000" points="436.738,75.4934 447.911,75.8924 443.322,79.0847 443.123,84.6714 "/>
    <polygon style="fill: #000000" points="563.262,144.507 552.089,144.108 556.678,140.915 556.877,135.329 "/>
    <polygon style="fill: none; fill-opacity:0; stroke-width: 2; stroke: #000000" points="563.262,144.507 552.089,144.108 556.678,140.915 556.877,135.329 "/>
  </g>
  <g>
    <line style="fill: none; fill-opacity:0; stroke-width: 2; stroke: #000000" x1="573.565" y1="218.58" x2="526.435" y2="281.42"/>
    <polygon style="fill: #000000" points="578.065,212.58 576.065,223.58 573.565,218.58 568.065,217.58 "/>
    <polygon style="fill: none; fill-opacity:0; stroke-width: 2; stroke: #000000" points="578.065,212.58 576.065,223.58 573.565,218.58 568.065,217.58 "/>
    <polygon style="fill: #000000" points="521.935,287.42 523.935,276.42 526.435,281.42 531.935,282.42 "/>
    <polygon style="fill: none; fill-opacity:0; stroke-width: 2; stroke: #000000" points="521.935,287.42 523.935,276.42 526.435,281.42 531.935,282.42 "/>
  </g>
  <g>
    <line style="fill: none; fill-opacity:0; stroke-width: 2; stroke: #000000" x1="610" y1="269.287" x2="610" y2="230.713"/>
    <polygon style="fill: #000000" points="610,276.787 605,266.787 610,269.287 615,266.787 "/>
    <polygon style="fill: none; fill-opacity:0; stroke-width: 2; stroke: #000000" points="610,276.787 605,266.787 610,269.287 615,266.787 "/>
    <polygon style="fill: #000000" points="610,223.213 615,233.213 610,230.713 605,233.213 "/>
    <polygon style="fill: none; fill-opacity:0; stroke-width: 2; stroke: #000000" points="610,223.213 615,233.213 610,230.713 605,233.213 "/>
  </g>
  <g>
    <line style="fill: none; fill-opacity:0; stroke-width: 2; stroke: #000000" x1="646.435" y1="218.58" x2="693.565" y2="281.42"/>
    <polygon style="fill: #000000" points="641.935,212.58 651.935,217.58 646.435,218.58 643.935,223.58 "/>
    <polygon style="fill: none; fill-opacity:0; stroke-width: 2; stroke: #000000" points="641.935,212.58 651.935,217.58 646.435,218.58 643.935,223.58 "/>
    <polygon style="fill: #000000" points="698.065,287.42 688.065,282.42 693.565,281.42 696.065,276.42 "/>
    <polygon style="fill: none; fill-opacity:0; stroke-width: 2; stroke: #000000" points="698.065,287.42 688.065,282.42 693.565,281.42 696.065,276.42 "/>
  </g>
  <g>
    <line style="fill: none; fill-opacity:0; stroke-width: 2; stroke: #000000" x1="133.565" y1="218.58" x2="86.4349" y2="281.42"/>
    <polygon style="fill: #000000" points="138.065,212.58 136.065,223.58 133.565,218.58 128.065,217.58 "/>
    <polygon style="fill: none; fill-opacity:0; stroke-width: 2; stroke: #000000" points="138.065,212.58 136.065,223.58 133.565,218.58 128.065,217.58 "/>
    <polygon style="fill: #000000" points="81.9349,287.42 83.9349,276.42 86.4349,281.42 91.9349,282.42 "/>
    <polygon style="fill: none; fill-opacity:0; stroke-width: 2; stroke: #000000" points="81.9349,287.42 83.9349,276.42 86.4349,281.42 91.9349,282.42 "/>
  </g>
  <g>
    <line style="fill: none; fill-opacity:0; stroke-width: 2; stroke: #000000" x1="170" y1="269.287" x2="170" y2="230.713"/>
    <polygon style="fill: #000000" points="170,276.787 165,266.787 170,269.287 175,266.787 "/>
    <polygon style="fill: none; fill-opacity:0; stroke-width: 2; stroke: #000000" points="170,276.787 165,266.787 170,269.287 175,266.787 "/>
    <polygon style="fill: #000000" points="170,223.213 175,233.213 170,230.713 165,233.213 "/>
    <polygon style="fill: none; fill-opacity:0; stroke-width: 2; stroke: #000000" points="170,223.213 175,233.213 170,230.713 165,233.213 "/>
  </g>
  <g>
    <line style="fill: none; fill-opacity:0; stroke-width: 2; stroke: #000000" x1="253.565" y1="281.42" x2="206.435" y2="218.58"/>
    <polygon style="fill: #000000" points="258.065,287.42 248.065,282.42 253.565,281.42 256.065,276.42 "/>
    <polygon style="fill: none; fill-opacity:0; stroke-width: 2; stroke: #000000" points="258.065,287.42 248.065,282.42 253.565,281.42 256.065,276.42 "/>
    <polygon style="fill: #000000" points="201.935,212.58 211.935,217.58 206.435,218.58 203.935,223.58 "/>
    <polygon style="fill: none; fill-opacity:0; stroke-width: 2; stroke: #000000" points="201.935,212.58 211.935,217.58 206.435,218.58 203.935,223.58 "/>
  </g>
  <text font-size="12.8" style="fill: #000000;text-anchor:start;font-family:sans-serif;font-style:normal;font-weight:700" x="160" y="100">
    <tspan x="160" y="100">DFW</tspan>
  </text>
  <text font-size="12.8" style="fill: #000000;text-anchor:start;font-family:sans-serif;font-style:normal;font-weight:700" x="600" y="100">
    <tspan x="600" y="100">LON</tspan>
  </text>
</svg>
